<svg xmlns="http://www.w3.org/2000/svg" width="121.08" height="121.08" viewBox="0 0 121.08 121.08">
  <defs>
    <style>
      .cls-1 {
        isolation: isolate;
      }

      .cls-2 {
        fill: #fff;
      }

      .cls-3 {
        fill: #008481;
      }

      .cls-4 {
        fill: #00c1bf;
        opacity: 0.15;
        mix-blend-mode: multiply;
      }

      .cls-5, .cls-6, .cls-7 {
        fill: #53b700;
      }

      .cls-5 {
        opacity: 0.3;
      }

      .cls-6 {
        opacity: 0.6;
      }

      .cls-8 {
        fill: #57b520;
      }

      .cls-9 {
        fill: none;
        stroke: #00c1bf;
        stroke-linecap: round;
        stroke-linejoin: round;
        stroke-width: 2px;
      }
    </style>
  </defs>
  <g class="cls-1">
    <g id="art">
      <g>
        <g>
          <g>
            <g>
              <path class="cls-2" d="M30.16,101a2,2,0,0,1-2-2V23a2,2,0,0,1,2-2H77a2,2,0,0,1,1.41.58L91.57,34.8a2,2,0,0,1,.58,1.41V99a2,2,0,0,1-2,2Z"/>
              <path class="cls-3" d="M77,23,90.16,36.21V99h-60V23H77m0-4H30.16a4,4,0,0,0-4,4V99a4,4,0,0,0,4,4h60a4,4,0,0,0,4-4V36.21A4,4,0,0,0,93,33.39L79.79,20.21A4,4,0,0,0,77,19Z"/>
            </g>
            <polygon class="cls-4" points="88.16 41.16 88.16 97.03 32.29 97.03 88.16 41.16"/>
            <g>
              <path class="cls-3" d="M78.59,36.79a2.39,2.39,0,0,1-2.4-2.4V23.16a1.62,1.62,0,0,1,1.61-1.61,1.59,1.59,0,0,1,1.13.48l12,12a1.6,1.6,0,0,1-1.13,2.74Z"/>
              <path class="cls-3" d="M77.8,22.05a1.13,1.13,0,0,1,.78.33l12,12a1.11,1.11,0,0,1-.78,1.89H78.59a1.9,1.9,0,0,1-1.9-1.9V23.16a1.11,1.11,0,0,1,1.11-1.11m0-1a2.12,2.12,0,0,0-2.11,2.11V34.39a2.9,2.9,0,0,0,2.9,2.9H89.82a2.11,2.11,0,0,0,1.49-3.59l-12-12a2.07,2.07,0,0,0-1.48-.62Z"/>
            </g>
          </g>
          <g>
            <path class="cls-5" d="M60.54,52.57a17.1,17.1,0,1,0,17.1,17.1A17.1,17.1,0,0,0,60.54,52.57Zm0,25.08a8,8,0,1,1,8-8A8,8,0,0,1,60.54,77.65Z"/>
            <path class="cls-6" d="M66,53.42l-2.89,8.66a8.43,8.43,0,0,1,5.46,7.59h9.12C77.64,63.45,72.74,55.68,66,53.42Z"/>
            <path class="cls-7" d="M60.54,86.73c9.45,0,17.1-6.18,17.1-17.06H68.52a7.79,7.79,0,0,1-8,7.94,7.91,7.91,0,0,1-4.92-1.73L50,83.06A17,17,0,0,0,60.54,86.73Z"/>
          </g>
        </g>
        <g>
          <circle class="cls-8" cx="47.31" cy="42.56" r="5"/>
          <line class="cls-9" x1="58.71" y1="42.56" x2="78.77" y2="42.56"/>
        </g>
      </g>
    </g>
  </g>
</svg>
